<?xml version="1.0" encoding="UTF-8"?>
<svg id="GRAFICA" xmlns="http://www.w3.org/2000/svg" viewBox="0 0 686.01 250.24">
  <defs>
    <style>
      .cls-1 {
        fill: #252525;
      }
    </style>
  </defs>
  <g>
    <g>
      <path class="cls-1" d="m253.65,71.71c-.48,13.43-.85,25.2-1.13,35.3-.27,10.11-.41,17.11-.41,21.01,0,14.67,1.51,24.45,4.52,29.35,3.02,4.9,8.19,7.35,15.51,7.35,3.63,0,7.68-.89,12.12-2.67,4.46-1.78,9.52-4.49,15.21-8.13.21-10.55.36-19.25.47-26.1.1-6.85.15-11.89.15-15.11v-6.99c0-8.63-.71-14.04-2.16-16.24-1.43-2.19-4.21-3.29-8.32-3.29-.68,0-1.43.02-2.2.05-.79.03-1.6.09-2.42.16l-.62-6.58c5.82-.41,11.56-1.06,17.22-1.95,5.64-.88,11.17-1.98,16.59-3.29-.41,11.72-.72,22.16-.93,31.34-.2,9.18-.31,17.2-.31,24.04,0,2.81-.03,6.32-.1,10.53-.07,4.22-.1,7.01-.1,8.38,0,6.37.55,10.56,1.64,12.54,1.1,1.99,3.15,2.98,6.16,2.98.68,0,1.49-.07,2.41-.21.93-.13,2.15-.41,3.65-.82l.82,6.38-31.34,7.92-.41-15.32c-7.4,5.62-13.89,9.73-19.47,12.34-5.59,2.6-10.67,3.9-15.26,3.9-9.38,0-16.71-2.7-21.99-8.12-5.27-5.41-7.92-12.95-7.92-22.62,0-2.47.1-7.64.31-15.52.06-3.29.1-5.86.1-7.71l.31-11.51c0-1.92.03-4.37.1-7.35.08-2.98.1-5.01.1-6.11,0-5.88-.5-9.79-1.49-11.71-.99-1.92-2.82-2.88-5.49-2.88-.82,0-1.78.07-2.88.2-1.09.14-2.22.28-3.39.41l-.72-6.68c4.93-.82,10.01-1.83,15.26-3.03,5.24-1.2,10.7-2.62,16.39-4.27Z"/>
      <path class="cls-1" d="m349.72,28.66c7.33.41,12.9.7,16.7.87,3.81.17,6.87.26,9.2.26,4.46,0,8.82-.08,13.11-.26,4.27-.17,8.54-.42,12.78-.77v7.19h-3.18c-5.42,0-9.08,1.86-11,5.6-1.91,3.73-2.87,12.31-2.87,25.72v20.43l.31,75.27c3.83.21,7.48.36,10.94.46,3.45.1,6.72.15,9.81.15,18.36,0,30.2-1.7,35.5-5.09,5.31-3.39,9.53-9.96,12.69-19.68l7.4,2.26c-2.12,5.89-4.01,11.69-5.65,17.37-1.64,5.69-3.08,11.41-4.32,17.17-11.37-.34-21.84-.6-31.39-.77-9.56-.17-18.51-.25-26.87-.25-5.89,0-12.47.09-19.73.25-7.26.17-15.82.43-25.68.77v-6.68c.48.07.94.12,1.39.15.44.04,1.11.05,2.01.05,9.24-.06,13.91-13.25,13.97-39.54,0-5.96.04-10.61.1-13.97l.21-27.92c0-3.02.03-6.88.1-11.61.07-4.72.1-8.01.1-9.86,0-12.6-1.01-20.8-3.03-24.59-2.02-3.8-5.93-5.7-11.76-5.7h-.82v-7.3Z"/>
      <path class="cls-1" d="m562.63,160.72l2.88,6.47c-5.13,3.71-9.83,6.56-14.08,8.58-4.25,2.02-7.67,3.03-10.28,3.03-4.38,0-7.67-1.29-9.86-3.86-2.19-2.57-3.39-6.46-3.6-11.67-7.46,5-13.66,8.59-18.6,10.74-4.93,2.16-9.35,3.24-13.25,3.24-6.92,0-12.71-2.6-17.36-7.81-4.66-5.21-6.99-11.58-6.99-19.12,0-12.82,13.8-22.47,41.41-28.98,6.51-1.51,11.58-2.7,15.21-3.6,0-1.16.03-2.84.1-5.03.21-4.52.31-7.47.31-8.84,0-7.13-1.47-12.38-4.42-15.77-2.95-3.39-7.43-5.08-13.46-5.08s-10.53,1.08-13.93,3.23c-3.39,2.16-5.08,5.09-5.08,8.79,0,.34.03.81.1,1.39.06.58.11,1.01.11,1.28,0,2.13-1.03,3.89-3.09,5.3-2.05,1.4-4.51,2.1-7.4,2.1-2.47,0-4.28-.41-5.45-1.23-1.16-.82-1.74-2.09-1.74-3.81,0-5.48,4.62-11.59,13.88-18.34,9.24-6.75,18.8-10.12,28.67-10.12s16.74,2.62,21.68,7.86c4.93,5.25,7.39,12.94,7.39,23.07,0,5.49-.32,13.91-.97,25.28-.66,11.37-.98,20.01-.98,25.9,0,4.45.5,7.47,1.48,9.05,1,1.57,2.76,2.36,5.29,2.36,1.1,0,2.52-.33,4.27-.98,1.75-.64,4.33-1.79,7.76-3.44Zm-35.04-34.74c-1.3.35-3.25.86-5.85,1.54-22.27,6.09-33.4,13.29-33.4,21.58,0,4.52,1.44,8.21,4.31,11.05,2.88,2.84,6.68,4.27,11.41,4.27,2.88,0,6.2-.75,9.97-2.27,3.77-1.51,8.16-3.9,13.15-7.2l.41-28.98Z"/>
      <path class="cls-1" d="m650.29,155.37l5.14,7.81c-6.65,5.08-13.19,8.91-19.63,11.52-6.44,2.6-12.54,3.9-18.29,3.9-13.43,0-24.39-4.81-32.88-14.44-8.5-9.62-12.75-21.94-12.75-36.95s5.38-28.7,16.14-39.45c10.75-10.75,23.86-16.13,39.35-16.13,7.94,0,14.08,1.11,18.4,3.34,4.31,2.23,6.47,5.33,6.47,9.3,0,2.87-.88,5.35-2.63,7.45-1.75,2.09-3.75,3.13-6.01,3.13-.76,0-3.93-1.73-9.51-5.19-5.58-3.46-10.91-5.19-15.98-5.19-8.91,0-15.98,3.21-21.22,9.61-5.24,6.41-7.86,15.12-7.86,26.15,0,13.91,3.16,24.75,9.51,32.53,6.33,7.78,15.11,11.67,26.35,11.67,4.19,0,8.34-.72,12.48-2.16,4.15-1.44,8.44-3.73,12.9-6.88Z"/>
      <path class="cls-1" d="m26.24,180.26v-7.35c.43,0,.9.02,1.39.05.5.04,1.21.05,2.13.05,9.45,0,14.24-13.18,14.39-39.54.07-6.67.14-11.89.21-15.66l.43-28.34c.07-6.11.12-12.06.16-17.85.03-5.79.05-12.41.05-19.87,0-6.11-1.14-10.34-3.41-12.68-2.27-2.34-6.32-3.52-12.15-3.52h-.86v-7.35c4.69.22,9.04.41,13.05.59,4.01.18,7.37.26,10.07.26,7.81,0,16.42-.3,25.83-.9,9.4-.6,14.93-.9,16.56-.9,26.42,0,47.24,6.72,62.43,20.13,15.2,13.43,22.79,31.68,22.79,54.77s-7.61,42.81-22.85,57.27c-15.24,14.46-35.6,21.69-61.1,21.69-3.76,0-10.61-.29-20.56-.85-9.95-.57-18.01-.85-24.19-.85-2.9,0-6.46.07-10.65.21-4.18.15-8.77.36-13.74.64Zm37.71-12.89c5.18,1.14,10.28,1.97,15.29,2.5,5,.54,10.02.8,15.07.8,20.03,0,35.38-5.47,46.08-16.42,10.69-10.94,16.02-26.56,16.02-46.88,0-21.66-5.75-38.63-17.25-50.92-11.51-12.28-27.49-18.43-47.94-18.43-4.19,0-8.45.16-12.78.48-4.33.32-8.78.79-13.32,1.44-.43,25.85-.73,46.23-.9,61.14-.18,14.92-.26,27.35-.26,37.29v28.99Z"/>
    </g>
    <g>
      <path class="cls-1" d="m40.27,227.35v-22.18h-5.84v-3.66l11.63-1.76v27.59h-5.79Z"/>
      <path class="cls-1" d="m83.34,216.11c-3.93.6-7.96.9-12.1.9s-7.26-.48-8.92-1.44c-1.77-1.02-2.65-2.9-2.65-5.62v-3.66c0-4.46,3.11-6.69,9.34-6.69h11.57c3.43,0,5.8.6,7.09,1.78,1.29,1.18,1.93,3.41,1.93,6.66v3.61c0,5.1-1.76,9.02-5.29,11.76-3.53,2.74-8.5,4.11-14.94,4.11-.88,0-1.54-.02-1.96-.05l-3.76-4.3h1.75c5.45,0,9.45-.46,12-1.38,2.97-1.03,4.95-2.92,5.94-5.68Zm.31-4.2c.1-.64.16-1.18.16-1.64,0-2.54-.32-4.18-.96-4.91-.64-.73-2.23-1.09-4.77-1.09h-7.59c-1.95,0-3.28.25-3.99.74-.71.5-1.06,1.37-1.06,2.65v1.54c0,1.37.42,2.29,1.28,2.73.85.44,2.45.67,4.83.67,3.51,0,7.54-.23,12.1-.7Z"/>
      <path class="cls-1" d="m123.32,199.87c2.41,0,4.05.36,4.93,1.09.89.73,1.33,2.15,1.33,4.27v2.49c0,1.6-.38,2.78-1.17,3.56-.78.78-2.12,1.36-4.04,1.75,3.9.43,5.85,2.25,5.85,5.47v2.87c0,2.16-.47,3.68-1.41,4.56-.94.89-2.7,1.33-5.28,1.33h-17.52c-2.58,0-4.36-.46-5.31-1.38-.89-.81-1.33-2.32-1.33-4.51v-2.87c0-3.22,1.95-5.04,5.84-5.47-1.91-.39-3.26-.97-4.06-1.75-.81-.77-1.2-1.96-1.2-3.56v-2.49c0-2.12.45-3.55,1.32-4.27.89-.73,2.53-1.09,4.94-1.09h17.09Zm-1.53,15.49h-14.02c-1.35,0-2.14.32-2.39.96-.14.35-.21.87-.21,1.54v2.02c0,1.16.24,1.87.74,2.12.36.21.97.32,1.86.32h14.02c1.13,0,1.85-.17,2.14-.53.3-.35.45-.99.45-1.91v-2.02c0-.92-.15-1.57-.45-1.94-.3-.37-1.01-.56-2.14-.56Zm-.59-10.83h-12.79c-1.35,0-2.17.32-2.45.96-.14.36-.21.87-.21,1.54v1.38c0,1.1.21,1.79.64,2.08.42.28,1.1.42,2.02.42h12.79c1.34,0,2.14-.32,2.39-.95.14-.36.21-.87.21-1.54v-1.38c0-.92-.15-1.57-.45-1.94-.3-.37-1.02-.56-2.15-.56Z"/>
      <path class="cls-1" d="m140.46,205.22c0-2.12.45-3.55,1.33-4.27.89-.73,2.53-1.09,4.94-1.09h14.07c2.4,0,4.05.36,4.94,1.09.89.73,1.33,2.15,1.33,4.27v1.75c0,1.49-.27,2.62-.79,3.4-.43.6-1.35,1.34-2.77,2.17l-16.09,9.77h15.93v-4.04l5.04,1.43v2.18c0,2.12-.44,3.54-1.33,4.27-.89.73-2.53,1.09-4.94,1.09h-23.04v-2.49c0-1.07.18-1.88.53-2.44.46-.78,1.43-1.63,2.93-2.55l18.94-11.67v-3.56h-15.61v5.63l-5.42-1.38v-3.56Z"/>
    </g>
    <path class="cls-1" d="m179.01,250.24H24.9c-13.73,0-24.9-13.34-24.9-29.74V29.75C0,13.35,11.17,0,24.9,0h154.11c13.74,0,24.92,13.35,24.92,29.75v190.75c0,16.4-11.17,29.74-24.92,29.74ZM24.9,10.92c-7.92,0-14.35,8.45-14.35,18.83v190.75c0,10.38,6.44,18.82,14.35,18.82h154.11c7.92,0,14.36-8.45,14.36-18.82V29.75c0-10.38-6.43-18.83-14.36-18.83H24.9Z"/>
    <g>
      <path class="cls-1" d="m222.78,226.91v-26.7h28.45v4.8h-21.86v6.94h11.78v4.98h-11.78v9.98h-6.59Z"/>
      <path class="cls-1" d="m253.57,226.91l15.9-26.7h6.27l16.16,26.7h-7.35l-3.36-5.87h-17.75l-3.36,5.87h-6.53Zm12.67-10.73h12.3l-6.28-11.1-6.02,11.1Z"/>
      <path class="cls-1" d="m298.56,226.91v-26.7h24.14c4.18,0,6.27,1.73,6.27,5.18v6.31c0,3.41-2.09,5.11-6.27,5.11h-3.67l12.73,10.1h-9.37l-11.22-10.1h-6.15v10.1h-6.47Zm21.36-22.09h-14.89v7.38h14.89c1.98,0,2.98-.72,2.98-2.15v-3.09c0-1.43-.99-2.14-2.98-2.14Z"/>
      <path class="cls-1" d="m339.74,226.91v-26.7h5.26l13.12,15.85,13.05-15.85h5.26v26.7h-6.08v-18.37l-11.98,15.15h-1.27l-12.1-14.7v17.93h-5.26Z"/>
      <path class="cls-1" d="m384.29,226.91l15.91-26.7h6.27l16.16,26.7h-7.36l-3.35-5.87h-17.75l-3.35,5.87h-6.53Zm12.68-10.73h12.29l-6.27-11.1-6.02,11.1Z"/>
      <path class="cls-1" d="m452.79,205.13h-17.56v16.66h17.56v-5.68l6.59,1.33v3.15c0,2.48-.5,4.16-1.49,5.02-.99.86-2.84,1.29-5.54,1.29h-16.73c-2.7,0-4.54-.45-5.51-1.33-.97-.88-1.45-2.54-1.45-4.99v-14.07c0-2.48.48-4.15,1.45-5.02.97-.86,2.81-1.3,5.51-1.3h16.73c2.7,0,4.55.44,5.54,1.3.99.86,1.49,2.54,1.49,5.02v2.59l-6.59.95v-4.92Z"/>
      <path class="cls-1" d="m470.09,226.91v-26.7h28.77v4.73h-22.18v5.82h12.92v4.6h-12.92v6.56h22.49v4.99h-29.08Z"/>
      <path class="cls-1" d="m515.21,200.21v21.71h18.57v-21.71h6.59v20.39c0,2.48-.5,4.16-1.5,5.02-.99.86-2.84,1.29-5.54,1.29h-17.74c-2.71,0-4.54-.43-5.51-1.29-.98-.86-1.46-2.54-1.46-5.02v-20.39h6.59Z"/>
      <path class="cls-1" d="m568.24,205.01v21.9h-6.53v-21.9h-12.93v-4.8h32.44v4.8h-12.99Z"/>
      <path class="cls-1" d="m589.66,226.91v-26.7h6.53v26.7h-6.53Z"/>
      <path class="cls-1" d="m631.61,205.13h-17.55v16.66h17.55v-5.68l6.59,1.33v3.15c0,2.48-.49,4.16-1.49,5.02-.99.86-2.84,1.29-5.54,1.29h-16.73c-2.7,0-4.54-.45-5.52-1.33-.97-.88-1.45-2.54-1.45-4.99v-14.07c0-2.48.49-4.15,1.45-5.02.97-.86,2.81-1.3,5.52-1.3h16.73c2.7,0,4.55.44,5.54,1.3.99.86,1.49,2.54,1.49,5.02v2.59l-6.59.95v-4.92Z"/>
      <path class="cls-1" d="m648.9,226.91v-26.7h6.53v26.7h-6.53Z"/>
    </g>
    <polygon class="cls-1" points="505.65 17.5 532.88 59.12 525.08 61.69 490.55 26.75 505.65 17.5"/>
  </g>
  <g>
    <path class="cls-1" d="m670.61,30.91c-8.5,0-15.39-6.9-15.39-15.39,0-8.51,6.9-15.41,15.41-15.4,8.5.01,15.39,6.91,15.38,15.4,0,8.5-6.9,15.39-15.4,15.39Zm0-27.66c-6.77,0-12.26,5.49-12.26,12.26,0,6.78,5.49,12.28,12.26,12.28,6.78,0,12.27-5.49,12.27-12.27,0-6.78-5.5-12.27-12.27-12.27Z"/>
    <path class="cls-1" d="m673.31,15.7c1.14.31,1.84,1.13,2.38,2.1.6,1.1,1.14,2.22,1.7,3.34.34.68.68,1.36,1.03,2.06-.07,0-.13.02-.18.02-1.35,0-2.71,0-4.06,0-.13,0-.19-.04-.25-.16-.65-1.33-1.3-2.66-1.97-3.99-.17-.34-.37-.66-.59-.96-.43-.6-1.03-.92-1.75-.96-.51-.03-1.03,0-1.57,0v6.06h-4.15V7.12c.07,0,.14,0,.21,0,2.13,0,4.26,0,6.39,0,1.12,0,2.23.12,3.3.5,1.59.57,2.43,1.71,2.56,3.39.05.69.02,1.38-.18,2.05-.39,1.28-1.3,2.05-2.51,2.5-.1.04-.2.07-.29.11-.01,0-.02.02-.03.03Zm-5.27-1.43c.41,0,.8.01,1.2,0,.48-.02.96-.01,1.44-.08.73-.11,1.28-.48,1.45-1.25.07-.34.11-.7.07-1.04-.1-1.1-.59-1.61-1.69-1.71-.81-.07-1.62-.04-2.44-.05,0,0-.02.02-.03.02v4.11Z"/>
  </g>
</svg>